<svg xmlns="http://www.w3.org/2000/svg" version="1.1" xmlns:xlink="http://www.w3.org/1999/xlink" width="90" height="90"><svg width="90" height="90" viewBox="0 0 90 90" fill="none" xmlns="http://www.w3.org/2000/svg">
<g clip-path="url(#clip0_3582_364)">
<rect width="90" height="90" transform="matrix(-1 0 0 1 90 0)" fill="#FC9967"></rect>
<path d="M27.2724 41.4767C27.211 37.8533 26.8887 33.3159 26.7352 31.5001L25.4066 26.4838L26.9766 21.4325L35.0995 15.1185L44.7583 13.3086L48.9904 18.5987L54.2464 17.8154L62.5741 24.3679L64.9632 35.6308C65.35 35.8469 66.11 36.4089 66.0554 36.9277C65.9871 37.5762 65.3045 39.6581 64.4854 41.4767C63.6663 43.2953 64.6902 44.9482 63.8028 46.2111C63.0929 47.2213 62.3239 47.0871 62.0281 46.8937C61.9598 47.5307 61.7141 49.0984 61.2772 50.2725C60.8403 51.4466 59.912 53.1508 59.5024 53.8562C59.1043 55.5968 58.0007 59.6992 56.772 62.1839C55.2362 65.2897 49.0587 71.4673 47.6593 72.4229C46.26 73.3785 41.0381 73.8222 40.219 74.2659C39.5637 74.6209 37.4658 77.6903 36.4988 79.1806C36.1234 78.5549 35.2906 77.1533 34.963 76.5526C34.5534 75.8018 34.4867 72.7642 34.2462 71.4673C34.0538 70.4297 33.2519 68.4382 32.875 67.5722L34.4867 63.965L33.9495 60.7416C33.1309 59.002 31.1098 54.9701 29.5748 52.7598C27.6561 49.9968 27.3491 46.0059 27.2724 41.4767Z" fill="white"></path>
<path d="M25.6995 35.9829C26.3998 38.5099 26.9708 39.0137 27.1688 38.9498C27.273 36.8344 27.4814 32.4475 27.4814 31.8223C27.4814 31.0408 27.4814 28.9777 27.1688 27.2584C27.0091 26.3804 26.9684 25.6438 27.014 24.9466C27.0633 24.1918 27.508 23.533 28.1185 23.0865L28.8255 22.5694C28.8255 23.1446 29.0174 24.2947 29.3196 25.1283L32.733 25.557C32.7018 24.7755 31.5764 22.5381 32.733 20.9439C33.6583 19.6684 35.5777 18.2034 36.4217 17.6303C35.7465 19.4559 35.406 22.4029 35.7498 23.4136C36.4376 23.0593 39.0221 21.6163 39.8223 19.0655C40.6226 16.5147 42.7063 15.7169 43.9254 15.7585C44.6757 17.0402 44.8396 18.4671 45.0584 19.2799C45.2772 20.0926 46.137 21.6765 48.7941 22.7706C51.4512 23.8647 52.6921 23.1658 53.2235 23.2283C53.6486 23.2783 54.8373 23.9978 55.1083 24.3625C55.9089 23.295 55.0562 21.4684 55.1083 20.8432C55.9923 22.311 57.4217 24.0807 59.0446 24.8462C59.4926 25.1698 60.2168 25.2277 60.8671 26.4769C61.6798 28.0383 62.0237 29.9155 62.5238 31.4472C63.024 32.979 62.4626 38.5094 61.9914 39.8873L63.2468 40.9896C63.5594 40.0548 65.0228 33.1202 65.4935 26.4769C65.6925 23.669 64.8371 18.7557 63.7742 17.1301C62.924 15.8297 60.8566 14.7335 59.9293 14.348C59.9293 14.0562 59.8542 13.4102 59.5541 13.1601C59.179 12.8475 58.0849 11.8785 56.5532 11.1282C55.0214 10.378 48.4568 6.87909 46.1123 6.50397C44.2367 6.20387 42.2882 7.12806 41.5484 7.62767C40.5585 7.74286 38.2661 8.07952 37.0157 8.50466C35.4527 9.03608 30.8574 12.066 28.4817 14.8481C26.1059 17.6303 23.6364 22.3208 23.6364 24.9154C23.6364 27.51 24.8243 32.8242 25.6995 35.9829Z" fill="#454545"></path>
<path d="M62.0429 46.6545C62.3663 46.9202 63.1902 47.1989 63.8989 46.1876C64.7847 44.9235 63.8145 44.122 64.2785 42.1394C64.7425 40.1569 67.4544 36.2326 64.8391 35.9373" stroke="black" stroke-width="1.5" stroke-linecap="round" stroke-linejoin="round"></path>
<path d="M7.15507 67.4903C6.01643 69.288 1.93631 77.6294 0.0385838 81.5754L-9.21231 92.1369L89.4067 90.5638C88.5077 85.9943 86.3953 76.4657 85.1368 74.9076C83.5637 72.9599 80.1927 70.7126 76.9715 68.1656C74.3946 66.1281 66.1595 60.4748 62.364 57.9029C61.6449 55.5665 60.2166 54.2832 59.5923 53.9336C59.5174 54.5578 59.053 56.5405 57.7945 59.477C56.2214 63.1476 49.7042 70.8633 47.7565 72.0619C46.1984 73.0208 41.7637 73.8598 39.7411 74.1594C38.6024 76.976 36.7197 78.5791 35.9207 79.0286C34.4224 77.006 33.973 73.4852 33.973 71.5375C33.973 69.9794 33.0241 68.1901 32.5497 67.4903C34.1078 65.3911 34.1478 61.2734 33.973 59.477L31.426 56.5528C26.9813 57.6767 17.5376 60.1043 15.3203 60.8234C12.5486 61.7224 8.57837 65.2432 7.15507 67.4903Z" fill="#454545"></path>
<path d="M27.255 29.5508C27.3857 30.5781 27.5685 33.2475 27.255 35.3641C26.8631 38.0099 27.4765 45.6666 28.0365 48.6699C28.5964 51.6732 31.6626 57.0309 35.7204 61.3911" stroke="black" stroke-width="1.5" stroke-linecap="round" stroke-linejoin="round"></path>
<path d="M38.2667 33.3638L39.316 34.4131C39.6565 34.7537 39.3697 35.3105 38.8951 35.2281C37.7441 35.0282 36.3395 34.7957 35.6518 34.7957C34.3283 34.7957 34.067 34.544 32.1841 34.6557C30.4351 34.7595 28.2265 35.5425 27.463 35.7115C28.196 34.4474 30.246 32.6624 31.1283 32.3242C32.7204 32.762 36.487 33.1342 38.0824 33.2772C38.1525 33.2835 38.2169 33.314 38.2667 33.3638Z" fill="black"></path>
<path d="M48.7119 32.7418L48.0055 33.844C47.769 34.213 48.0856 34.6768 48.5144 34.586C49.5823 34.3601 50.9262 34.0718 51.479 34.0127C52.795 33.872 53.6112 33.8555 55.4974 33.8555C56.863 33.8555 58.1725 34.0476 59.055 34.1997C59.3125 34.2441 59.488 33.9724 59.3188 33.7734C58.4284 32.7253 56.9471 31.6524 56.1539 31.3405C56.0944 31.317 56.0304 31.3167 55.9691 31.3352C54.3794 31.8137 50.7033 32.3048 49.0675 32.5158C48.9208 32.5348 48.7917 32.6173 48.7119 32.7418Z" fill="black"></path>
<path d="M40.2203 45.8733C40.7065 45.3741 41.9234 44.508 42.9009 45.0368C44.1229 45.6978 44.7891 45.368 45.4233 44.9233C46.1861 44.3885 47.219 44.5568 48.0439 45.4019" stroke="black" stroke-width="1.5" stroke-linecap="round" stroke-linejoin="round"></path>
<path d="M57.2146 57.2165C58.0523 56.0177 60.5548 52.7272 61.197 50.2986C61.9998 47.2628 62.5732 43.094 62.5732 40.0703" stroke="black" stroke-width="1.5" stroke-linecap="round" stroke-linejoin="round"></path>
<path d="M41.2319 63.1787C41.8834 63.4797 43.6891 64.0959 45.6996 64.153C48.2127 64.2243 49.8532 63.1772 51.4937 61.7461" stroke="black" stroke-width="1.5" stroke-linecap="round" stroke-linejoin="round"></path>
<path opacity="0.2" d="M44.4594 67.1076C42.3917 66.9684 40.958 66.3856 40.0102 65.7605C39.7256 65.5728 39.0726 65.9583 39.1653 66.2865L40.4128 70.707C40.5291 71.119 40.1075 71.4771 39.7197 71.2956L36.2704 69.6815L34.275 63.8201L32.7081 67.7113C33.2304 68.5382 34.275 70.5055 34.275 71.7589C34.275 73.3257 34.8134 76.7205 36.5027 79.2013L40.1505 74.2397C41.935 74.1091 46.0522 73.4302 48.2458 71.7589C49.9621 70.3434 53.7331 66.9428 55.0866 64.6649C56.4402 62.3869 57.4664 60.6345 57.8103 60.043L54.5441 61.99C54.4702 62.034 54.4026 62.0872 54.3423 62.1485C51.8053 64.7285 48.8704 67.4046 44.4594 67.1076Z" fill="black"></path>
<path d="M31.8238 56.8047C30.687 57.7249 28.0523 59.9961 26.6079 61.7201C25.1634 63.444 24.4941 69.5876 23.5987 73.1032C25.8221 74.0561 30.8007 76.9449 32.9271 80.8769M23.5987 93.7161C26.6079 89.7928 28.3361 82.9146 33.5759 80.8769M33.5759 80.8769C37.1869 79.4726 39.4471 74.9588 40.1492 74.3069M33.5759 80.8769C34.853 80.9898 37.9556 81.089 40.1492 80.583C42.3428 80.0771 43.7064 78.4045 44.114 77.6315M40.1492 74.3069C40.8513 73.6549 45.7162 73.4543 47.8226 72.4512C49.9291 71.4481 54.2924 65.7808 56.7499 62.3704C58.7159 59.6421 59.5752 55.583 59.7591 53.8945C60.3218 54.5465 61.5482 56.1302 62.4066 57.7382M40.1492 74.3069L45.8667 75.3114C46.7193 74.9765 48.6251 74.1968 49.4275 73.7566C50.23 73.3165 57.4855 75.6797 61.0129 76.9163C62.2667 70.2961 63.7713 60.6165 62.7181 58.3596C62.6219 58.1534 62.5173 57.9456 62.4066 57.7382M62.4066 57.7382C65.1918 59.6618 71.5031 64.1123 74.4664 66.5257C78.1707 69.5423 82.7667 71.7497 85.5105 75.3114C87.7056 78.1608 88.2544 87.6992 88.2544 92.1123" stroke="black" stroke-width="1.5" stroke-linecap="round" stroke-linejoin="round"></path>
<path d="M34.0807 59.5156C34.0807 60.0837 34.3816 63.4827 34.3816 63.4827M34.3816 63.4827C34.3816 63.4827 33.2782 66.454 32.877 67.6911C33.2615 68.3099 34.1007 70.2194 34.3816 72.9076C34.7326 76.2679 34.6323 76.2679 36.2372 79.1768M34.3816 63.4827L35.77 69.1598" stroke="black" stroke-width="1.5" stroke-linecap="round" stroke-linejoin="round"></path>
<path d="M32.7845 67.5354C31.0752 64.9154 31.5484 59.6375 31.9876 57.5469L33.7682 59.4359C33.8275 60.1837 33.9106 62.0213 33.7682 63.3888C33.6257 64.7563 33.0457 66.8702 32.7845 67.5354Z" fill="black"></path>
<path d="M32.7845 67.5354C31.0752 64.9154 31.5484 59.6375 31.9876 57.5469L33.7682 59.4359C33.8275 60.1837 33.9106 62.0213 33.7682 63.3888C33.6257 64.7563 33.0457 66.8702 32.7845 67.5354ZM32.7845 67.5354L31.3612 70.766" stroke="black" stroke-width="1.5" stroke-linecap="round" stroke-linejoin="round"></path>
<path d="M31.7235 56.9609C30.2858 57.1934 25.8656 58.1099 19.6867 59.9167C11.9632 62.1753 12.6653 62.4762 9.60596 64.9838C7.15848 66.99 1.23923 80.0032 -0.934074 85.1188" stroke="black" stroke-width="1.5" stroke-linecap="round" stroke-linejoin="round"></path>
<path d="M27.1582 39.1407C26.9051 38.9291 26.2724 38.1013 25.7662 36.4827C25.1335 34.4593 23.8258 27.8367 23.6571 26.2338C23.4884 24.6309 23.4462 21.9321 27.1582 16.7859C30.8702 11.6397 35.8056 8.01239 41.5845 7.63275C42.4 7.0132 44.7819 6.03563 47.7853 7.08175C51.5395 8.3894 56.1374 10.8812 57.6981 11.8935C59.2588 12.9059 59.9338 12.9903 59.8072 14.5088C60.7774 14.8322 62.954 15.8502 63.8989 17.335C65.08 19.1911 65.5018 24.042 65.544 25.5184C65.5862 26.9948 64.7425 33.7017 64.8269 35.7687" stroke="black" stroke-width="1.5" stroke-linecap="round" stroke-linejoin="round"></path>
<path d="M43.3743 11.1953C42.4557 11.686 41.3061 12.2893 40.6987 14.5502C39.9394 17.3764 39.855 20.7088 36.3961 23.1975" stroke="black" stroke-width="1.5" stroke-linecap="round" stroke-linejoin="round"></path>
<path d="M38.5474 14.0039C36.8039 14.9184 32.9878 17.3714 31.6717 19.8677C30.3556 22.364 31.517 24.6754 32.2623 25.519" stroke="black" stroke-width="1.5" stroke-linecap="round" stroke-linejoin="round"></path>
<path d="M32.3466 15.6445C30.4906 17.1077 27.386 21.2487 29.8157 26.1075" stroke="black" stroke-width="1.5" stroke-linecap="round" stroke-linejoin="round"></path>
<path d="M27.0865 22.1453C26.6803 22.6118 25.8649 23.9114 25.8534 25.378" stroke="black" stroke-width="1.5" stroke-linecap="round" stroke-linejoin="round"></path>
<path d="M44.0479 13.6758C44.201 15.6667 44.8869 15.7868 45.17 17.883C45.5918 21.006 46.5321 21.6535 50.5394 22.708" stroke="black" stroke-width="1.5" stroke-linecap="round" stroke-linejoin="round"></path>
<path d="M47.2791 14.4219C48.2774 14.7453 50.7296 16.271 51.202 17.9242C51.7926 19.9908 51.3708 21.1719 54.7453 23.6607" stroke="black" stroke-width="1.5" stroke-linecap="round" stroke-linejoin="round"></path>
<path d="M51.3708 13.6641C53.0862 14.2838 56.7279 16.2654 57.5716 19.2338C58.6261 22.9443 57.9512 22.185 59.2589 24.3363" stroke="black" stroke-width="1.5" stroke-linecap="round" stroke-linejoin="round"></path>
<path d="M61.4523 27.5859C61.6632 28.1621 62.1863 29.7872 62.5912 31.6783C62.9962 33.5694 62.9849 35.8422 62.9287 36.7422" stroke="black" stroke-width="1.5" stroke-linecap="round" stroke-linejoin="round"></path>
<path d="M46.1704 49.565L50.9341 50.108L51.7525 49.7408C52.0122 49.6243 52.3182 49.7176 52.4683 49.9595C52.5918 50.1587 52.5805 50.4137 52.4361 50.5982C51.5883 51.6803 49.9353 53.6069 48.8072 54.4156C47.2503 55.5313 43.8737 56.2132 41.4898 55.1421C39.8183 54.3912 37.6713 52.4192 36.5279 51.316C36.3915 51.1841 36.3575 50.979 36.4419 50.8091C36.5274 50.6376 36.7147 50.542 36.9038 50.5728L38.5054 50.8336L42.3911 50.0064C42.4816 49.9872 42.5743 49.9806 42.6665 49.9869L44.4478 50.108L45.6978 49.6255C45.8482 49.5675 46.0103 49.5468 46.1704 49.565ZM51.0044 50.5132L49.5337 50.9888C48.7208 50.9715 46.9651 50.9473 46.4458 50.9888C45.927 51.0303 44.9499 51.2654 44.5259 51.3775C43.9032 51.3001 43.1501 51.1692 42.7349 51.1705C42.5678 51.1712 40.6937 51.4822 39.6734 51.5591L38.3091 51.2418C38.1935 51.2148 38.0741 51.2704 38.021 51.3765C37.9677 51.4835 37.9952 51.6126 38.0923 51.6822C38.5128 51.9835 39.3893 52.5236 39.855 52.649C40.5297 52.8307 42.813 53.7135 46.0044 53.1168C48.4005 52.6687 50.4624 51.4946 51.229 50.9302C51.3107 50.8701 51.3412 50.7637 51.3091 50.6675C51.2669 50.5412 51.1312 50.4724 51.0044 50.5132Z" fill="#FED1D0"></path>
<ellipse cx="34.4797" cy="37.168" rx="1.44819" ry="1.6875" fill="black"></ellipse>
<path opacity="0.5" d="M29.976 45.9157C28.9478 45.4429 28.6098 43.9818 29.2211 42.6522C29.8325 41.3226 31.356 40.5311 32.4176 40.9211C33.8775 41.4573 34.2174 42.8346 33.606 44.1642C32.9947 45.4937 31.0042 46.3884 29.976 45.9157Z" fill="#FED1D0"></path>
<path opacity="0.5" d="M58.8862 45.2052C59.9649 44.7092 60.3195 43.1764 59.6781 41.7815C59.0368 40.3866 57.4384 39.5562 56.3246 39.9653C54.7931 40.5279 54.4365 41.9728 55.0778 43.3677C55.7192 44.7626 57.8075 45.7012 58.8862 45.2052Z" fill="#FED1D0"></path>
<ellipse cx="53.1864" cy="36.3906" rx="1.44819" ry="1.6875" fill="black"></ellipse>
<circle cx="40.9317" cy="77.3771" r="1.15838" fill="black"></circle>
</g>
<defs>
<clipPath id="SvgjsClipPath1001">
<rect width="90" height="90" fill="white" transform="matrix(-1 0 0 1 90 0)"></rect>
</clipPath>
</defs>
</svg><style>@media (prefers-color-scheme: light) { :root { filter: none; } }
@media (prefers-color-scheme: dark) { :root { filter: none; } }
</style></svg>